<?xml version="1.0" standalone="no"?>
<!DOCTYPE svg PUBLIC "-//W3C//DTD SVG 20010904//EN"
 "http://www.w3.org/TR/2001/REC-SVG-20010904/DTD/svg10.dtd">
<svg version="1.0" xmlns="http://www.w3.org/2000/svg"
 width="1241.000000pt" height="83.000000pt" viewBox="0 0 1241.000000 83.000000"
 preserveAspectRatio="xMidYMid meet">

<g transform="translate(0.000000,83.000000) scale(0.100000,-0.100000)"
fill="#000000" stroke="none">
<path d="M847 688 c-14 -45 -23 -77 -18 -72 11 12 54 144 49 149 -2 3 -16 -32
-31 -77z"/>
<path d="M800 734 c0 -15 -4 -23 -11 -19 -5 4 -21 4 -33 1 -53 -13 -30 -88 25
-84 29 2 29 3 29 65 0 35 -2 63 -5 63 -3 0 -5 -12 -5 -26z m-6 -46 c13 -22
-14 -54 -38 -45 -16 6 -22 48 -9 61 11 11 35 3 47 -16z"/>
<path d="M1200 750 c0 -5 5 -10 10 -10 6 0 10 5 10 10 0 6 -4 10 -10 10 -5 0
-10 -4 -10 -10z"/>
<path d="M101 688 c1 -35 4 -51 6 -36 3 22 10 28 36 31 l32 4 -32 1 c-28 2
-33 6 -33 26 0 21 5 25 38 29 l37 4 -42 1 -43 2 1 -62z"/>
<path d="M900 690 l0 -60 34 0 c42 0 66 22 66 60 0 38 -24 60 -66 60 l-34 0 0
-60z m78 38 c7 -7 12 -24 12 -40 0 -29 -23 -48 -59 -48 -18 0 -21 6 -21 50 0
48 1 50 28 50 15 0 33 -5 40 -12z"/>
<path d="M462 724 c-7 -8 -8 -14 -3 -14 5 0 11 -17 13 -37 2 -29 8 -38 23 -40
16 -1 16 -1 3 3 -13 4 -18 16 -18 40 0 25 4 34 18 35 13 0 14 2 2 6 -8 3 -17
9 -20 13 -3 4 -11 2 -18 -6z"/>
<path d="M190 674 c0 -24 5 -44 10 -44 6 0 10 16 10 35 0 21 6 37 17 43 13 8
11 10 -10 10 -25 0 -27 -4 -27 -44z"/>
<path d="M262 708 c-27 -27 -7 -78 29 -78 21 0 49 26 49 45 0 35 -53 58 -78
33z m53 -33 c0 -23 -5 -30 -19 -30 -28 0 -43 29 -26 50 21 25 45 14 45 -20z"/>
<path d="M361 670 l2 -45 6 40 c5 32 11 41 29 43 20 3 22 -1 22 -37 0 -23 5
-41 10 -41 15 0 12 66 -4 79 -7 6 -25 10 -40 9 -24 -2 -26 -5 -25 -48z"/>
<path d="M532 708 c-15 -15 -15 -51 0 -66 15 -15 55 -16 63 -2 4 7 -2 9 -17 5
-16 -4 -29 -1 -37 9 -12 14 -9 16 23 16 23 0 36 5 36 13 0 18 -21 37 -40 37
-9 0 -21 -5 -28 -12z m56 -15 c2 -9 -7 -13 -28 -13 -28 0 -31 2 -20 15 15 18
41 16 48 -2z"/>
<path d="M620 674 c0 -54 18 -59 22 -6 2 29 7 37 23 37 16 0 21 -9 26 -40 l7
-40 -2 45 c-1 45 -1 45 -38 47 l-38 1 0 -44z"/>
<path d="M1032 708 c-15 -15 -15 -51 0 -66 15 -15 55 -16 63 -2 4 7 -2 9 -17
5 -16 -4 -29 -1 -37 9 -12 14 -9 16 23 16 23 0 36 5 36 13 0 18 -21 37 -40 37
-9 0 -21 -5 -28 -12z m56 -15 c2 -9 -7 -13 -28 -13 -28 0 -31 2 -20 15 15 18
41 16 48 -2z"/>
<path d="M1121 706 c-12 -15 -2 -27 32 -39 28 -10 9 -30 -22 -22 -19 5 -23 4
-15 -5 7 -6 22 -10 35 -8 32 4 33 42 2 46 -13 2 -23 10 -23 17 0 7 10 16 23
18 21 4 21 4 1 6 -12 0 -27 -5 -33 -13z"/>
<path d="M1200 675 c0 -25 5 -45 10 -45 6 0 10 20 10 45 0 25 -4 45 -10 45 -5
0 -10 -20 -10 -45z"/>
<path d="M1252 708 c-30 -30 -2 -85 39 -75 13 3 19 1 16 -6 -2 -7 -19 -11 -37
-10 -21 1 -29 -2 -22 -9 5 -5 22 -8 38 -6 28 3 29 6 32 58 3 55 2 56 -26 58
-15 1 -33 -3 -40 -10z m53 -33 c0 -25 -4 -30 -25 -30 -16 0 -26 6 -28 18 -6
30 6 49 30 45 18 -2 23 -9 23 -33z"/>
<path d="M1350 674 c0 -54 18 -59 22 -6 2 29 7 37 23 37 16 0 21 -9 26 -40 l7
-40 -2 45 c-1 45 -1 45 -38 47 l-38 1 0 -44z"/>
</g>
</svg>
